<svg xmlns="http://www.w3.org/2000/svg" viewBox="0 0 500 84">
  <path fill="#ffffff" d="M72.343 83.783c-3.525 0-6.969-.017-10.414.014a1.317 1.317 0 0 1-1.33-.746c-4.93-8.569-9.871-17.132-14.825-25.688-1.385-2.4-2.766-4.8-4.106-7.223a1.28 1.28 0 0 1-.007-1.066c4.42-7.723 8.858-15.436 13.315-23.139l3.554-6.157c.171-.295.363-.58.645-1.028.641 1.088 1.215 2.053 1.777 3.027 1.602 2.768 3.188 5.546 4.809 8.303.321.46.317 1.076-.011 1.531-2.858 4.903-5.68 9.825-8.516 14.741-.491.854-.986 1.707-1.499 2.549a1.232 1.232 0 0 0 0 1.409c4.291 7.399 8.57 14.806 12.838 22.22 2 3.46 4.001 6.92 6.004 10.377.129.224.218.472.402.876h-2.636ZM41.418 36.192a3745.205 3745.205 0 0 1-3.91 6.766c-.725-1.233-1.362-2.295-1.983-3.366-1.551-2.673-3.089-5.353-4.648-8.021a1.176 1.176 0 0 1-.032-1.374A3638.717 3638.717 0 0 0 42.62 9.856c1.758-3.047 3.499-6.103 5.251-9.153.113-.197.253-.378.471-.703.627 1.052 1.192 1.97 1.731 2.904 1.625 2.813 3.236 5.636 4.866 8.446.294.388.321.919.068 1.335-4.47 7.725-8.933 15.455-13.388 23.19-.05.092-.116.176-.201.317Z"/>
  <path fill="#d6d7d9" d="M14.664 58.29c3.99-6.914 7.95-13.78 11.991-20.79.676 1.15 1.283 2.168 1.875 3.195 1.596 2.767 3.174 5.544 4.787 8.298.262.368.26.866-.005 1.231a18942.09 18942.09 0 0 0-18.995 32.919 1.013 1.013 0 0 1-.976.644c-4.217-.023-8.434-.012-12.652-.015-.177 0-.354-.036-.689-.075C4.912 75.182 9.772 66.76 14.664 58.29ZM69.193 60.347c-1.975-3.415-3.923-6.777-5.832-10.162a1.292 1.292 0 0 1-.061-1.072c2.11-3.73 4.266-7.431 6.412-11.142.066-.112.153-.212.313-.435l26.653 46.18c-.426.026-.68.054-.933.055-4.111.002-8.222-.004-12.331.01a1.01 1.01 0 0 1-1.021-.562 7165.21 7165.21 0 0 0-13.2-22.872ZM43.525 70.043c-2.528 4.388-5.027 8.726-7.521 13.067-.218.378-.413.68-.957.678-4.3-.025-8.6-.015-12.899-.017-.105 0-.211-.023-.489-.056l15.772-27.334c.142.133.271.279.387.435 2.136 3.687 4.275 7.374 6.378 11.078.116.319.109.67-.019.985-.18.408-.399.797-.652 1.164Z"/>
  <path fill="#d6d7d9" d="m116.963 56.691 21.209-47.13h8.617l21.276 47.13h-9.155l-18.246-42.485h3.501l-18.179 42.485h-9.023ZM172.712 56.691l19.862-27.336v6.599L173.655 9.561h9.897l14.072 19.524-4.04.067L207.522 9.56h9.492l-18.785 25.921v-6.328l19.997 27.538h-10.099l-14.812-20.737h3.972l-14.61 20.737h-9.965ZM248.727 57.364a27.674 27.674 0 0 1-10.167-1.817 24.582 24.582 0 0 1-8.079-5.084 22.868 22.868 0 0 1-5.321-7.675 25.708 25.708 0 0 1 0-19.324 22.896 22.896 0 0 1 5.321-7.675 24.599 24.599 0 0 1 8.079-5.084 29.068 29.068 0 0 1 20.233 0 24.674 24.674 0 0 1 8.045 5.084 22.916 22.916 0 0 1 5.321 7.675 25.793 25.793 0 0 1 0 19.357 22.464 22.464 0 0 1-5.321 7.676 24.981 24.981 0 0 1-8.045 5.05 27.226 27.226 0 0 1-10.066 1.817Zm-.068-7.675a17.608 17.608 0 0 0 6.599-1.212 15.192 15.192 0 0 0 5.251-3.468 16.352 16.352 0 0 0 3.468-5.251c1.66-4.264 1.66-9 0-13.264a16.367 16.367 0 0 0-3.468-5.252 15.204 15.204 0 0 0-5.251-3.467 17.608 17.608 0 0 0-6.599-1.212 17.339 17.339 0 0 0-6.563 1.212 15.649 15.649 0 0 0-5.252 3.467 16.059 16.059 0 0 0-3.501 5.252 18.196 18.196 0 0 0 0 13.23 16.235 16.235 0 0 0 3.467 5.285 15.206 15.206 0 0 0 5.252 3.468 17.597 17.597 0 0 0 6.597 1.212Z"/>
  <path fill="#ffffff" d="M295.655 56.691h-8.752V9.561h34.405V16.9h-25.652l-.001 39.791Zm-.741-25.45h23.498v7.406h-23.498v-7.406ZM335.109 56.691V9.561h8.753v39.724h24.643v7.406h-33.396ZM397.793 57.364a27.665 27.665 0 0 1-10.166-1.817 24.56 24.56 0 0 1-8.08-5.084 22.88 22.88 0 0 1-5.32-7.675 25.708 25.708 0 0 1 0-19.324 22.899 22.899 0 0 1 5.32-7.675 24.593 24.593 0 0 1 8.08-5.084 29.065 29.065 0 0 1 20.232 0 24.689 24.689 0 0 1 8.046 5.084 22.913 22.913 0 0 1 5.32 7.675 25.793 25.793 0 0 1 0 19.357 22.465 22.465 0 0 1-5.32 7.676 24.986 24.986 0 0 1-8.046 5.05 27.223 27.223 0 0 1-10.066 1.817Zm-.067-7.675a17.599 17.599 0 0 0 6.598-1.212 15.206 15.206 0 0 0 5.252-3.468 16.349 16.349 0 0 0 3.467-5.251c1.661-4.264 1.661-9 0-13.264a16.38 16.38 0 0 0-3.467-5.252 15.217 15.217 0 0 0-5.252-3.467 17.599 17.599 0 0 0-6.598-1.212 17.344 17.344 0 0 0-6.564 1.212 15.659 15.659 0 0 0-5.252 3.467 16.075 16.075 0 0 0-3.501 5.252 18.196 18.196 0 0 0 0 13.23 16.251 16.251 0 0 0 3.467 5.285 15.206 15.206 0 0 0 5.252 3.468 17.602 17.602 0 0 0 6.598 1.212ZM442.232 56.691l-15.621-47.13h9.09l13.938 42.619h-4.511l14.476-42.619h8.078l14.072 42.619h-4.377l14.274-42.619H500l-15.621 47.13h-9.291l-12.86-38.445h2.424L451.59 56.691h-9.358ZM139.537 41.201c2.8-1.592 5.391-1.13 7.142 1.172 1.421 1.869 1.109 4.874-.684 6.596a5.138 5.138 0 0 1-6.9.182c-1.901-1.624-2.198-4.832-.617-6.875.329-.381.683-.74 1.059-1.075Z"/>
  <path fill="#d6d7d9" d="M116.927 83.766V70.579h1.884v11.549h7.14v1.638h-9.024ZM143.246 83.917a7.586 7.586 0 0 1-2.798-.509 6.554 6.554 0 0 1-3.701-3.561 7.047 7.047 0 0 1 0-5.349 6.568 6.568 0 0 1 1.469-2.14 6.717 6.717 0 0 1 2.223-1.422 7.997 7.997 0 0 1 5.586-.01c.827.32 1.583.8 2.223 1.413a6.4 6.4 0 0 1 1.47 2.139 7.271 7.271 0 0 1 0 5.388 6.382 6.382 0 0 1-1.47 2.138 6.703 6.703 0 0 1-2.223 1.413c-.886.34-1.829.51-2.779.5Zm0-1.678c.693.007 1.38-.12 2.024-.375a4.82 4.82 0 0 0 1.62-1.065 4.972 4.972 0 0 0 1.074-1.611 5.464 5.464 0 0 0 0-4.032 4.967 4.967 0 0 0-1.074-1.61 4.82 4.82 0 0 0-1.62-1.065 5.685 5.685 0 0 0-4.069 0 4.896 4.896 0 0 0-2.713 2.675 5.454 5.454 0 0 0 0 4.032 4.898 4.898 0 0 0 2.713 2.676 5.421 5.421 0 0 0 2.045.376v-.001ZM168.491 83.917a7.67 7.67 0 0 1-2.807-.5 6.54 6.54 0 0 1-3.692-3.551 7.146 7.146 0 0 1 0-5.388 6.501 6.501 0 0 1 1.479-2.138 6.674 6.674 0 0 1 2.232-1.413 8.282 8.282 0 0 1 5.69.009 5.663 5.663 0 0 1 2.204 1.526l-1.168 1.168a5.196 5.196 0 0 0-1.762-1.158 5.677 5.677 0 0 0-2.063-.368 5.77 5.77 0 0 0-2.1.376 5.039 5.039 0 0 0-1.678 1.055 4.7 4.7 0 0 0-1.092 1.611 5.454 5.454 0 0 0 0 4.032c.249.609.621 1.16 1.092 1.619a4.947 4.947 0 0 0 1.668 1.065 5.678 5.678 0 0 0 2.091.376 6.248 6.248 0 0 0 2.024-.33 4.96 4.96 0 0 0 1.799-1.102l1.074 1.432a6.677 6.677 0 0 1-2.289 1.253 8.757 8.757 0 0 1-2.702.426Zm3.184-1.922v-4.898h1.809v5.143l-1.809-.245ZM192.455 83.917a7.666 7.666 0 0 1-2.807-.5 6.544 6.544 0 0 1-3.693-3.551 7.146 7.146 0 0 1 0-5.388 6.501 6.501 0 0 1 1.479-2.138 6.694 6.694 0 0 1 2.232-1.413 8.282 8.282 0 0 1 5.69.009 5.663 5.663 0 0 1 2.204 1.526l-1.168 1.168a5.187 5.187 0 0 0-1.762-1.158 5.673 5.673 0 0 0-2.063-.368 5.774 5.774 0 0 0-2.1.376 5.025 5.025 0 0 0-1.677 1.055 4.704 4.704 0 0 0-1.093 1.611 5.454 5.454 0 0 0 0 4.032c.249.609.621 1.16 1.093 1.619a4.933 4.933 0 0 0 1.667 1.065 5.683 5.683 0 0 0 2.092.376 6.248 6.248 0 0 0 2.024-.33 4.969 4.969 0 0 0 1.799-1.102l1.074 1.432a6.686 6.686 0 0 1-2.289 1.253 8.762 8.762 0 0 1-2.702.426Zm3.184-1.922v-4.898h1.808v5.143l-1.808-.245ZM210.465 83.766V70.579h1.884v13.187h-1.884ZM225.726 83.766V70.579h1.544l8.723 10.832h-.81V70.579h1.885v13.187h-1.545L226.8 72.934h.81v10.832h-1.884ZM256.397 83.917a7.666 7.666 0 0 1-2.807-.5 6.544 6.544 0 0 1-3.693-3.551 7.146 7.146 0 0 1 0-5.388 6.501 6.501 0 0 1 1.479-2.138 6.688 6.688 0 0 1 2.233-1.413 8.279 8.279 0 0 1 5.689.009 5.666 5.666 0 0 1 2.205 1.526l-1.169 1.168a5.183 5.183 0 0 0-1.761-1.158 5.677 5.677 0 0 0-2.063-.368 5.77 5.77 0 0 0-2.1.376 5.025 5.025 0 0 0-1.677 1.055 4.69 4.69 0 0 0-1.093 1.611 5.454 5.454 0 0 0 0 4.032c.249.609.621 1.16 1.093 1.619a4.933 4.933 0 0 0 1.667 1.065 5.678 5.678 0 0 0 2.091.376 6.248 6.248 0 0 0 2.024-.33 4.96 4.96 0 0 0 1.799-1.102l1.074 1.432a6.694 6.694 0 0 1-2.289 1.253 8.732 8.732 0 0 1-2.702.426Zm3.184-1.922v-4.898h1.808v5.143l-1.808-.245ZM292.907 83.917c-1.733 0-3.096-.497-4.088-1.489-.992-.992-1.488-2.443-1.488-4.352v-7.497h1.883v7.422c0 1.47.324 2.544.971 3.222.647.678 1.56 1.018 2.741 1.017 1.193 0 2.113-.339 2.76-1.017.647-.678.97-1.752.97-3.222v-7.422h1.828v7.498c0 1.909-.493 3.36-1.479 4.352-.986.992-2.352 1.488-4.098 1.488ZM312.858 83.766V70.579h1.545l8.723 10.832h-.81V70.579h1.884v13.187h-1.545l-8.723-10.832h.81v10.832h-1.884ZM338.668 83.766V70.579h1.884v11.549h7.14v1.638h-9.024ZM362.256 82.127h7.687v1.639h-9.571V70.579h9.307v1.639h-7.423v9.909Zm-.169-5.859h6.782v1.601h-6.783l.001-1.601ZM381.509 83.766l5.972-13.188h1.865l5.991 13.188h-1.978l-5.331-12.133h.751l-5.331 12.133h-1.939Zm2.545-3.296.508-1.507h7.423l.546 1.507h-8.477ZM411.652 83.917a9.02 9.02 0 0 1-2.882-.463 5.907 5.907 0 0 1-2.167-1.196l.697-1.47c.569.478 1.22.848 1.922 1.093a6.907 6.907 0 0 0 2.43.433 5.48 5.48 0 0 0 1.865-.263 2.208 2.208 0 0 0 1.055-.726c.225-.302.344-.669.34-1.045a1.43 1.43 0 0 0-.443-1.093 3.285 3.285 0 0 0-1.15-.669 12.866 12.866 0 0 0-1.554-.443 25.513 25.513 0 0 1-1.706-.442 7.632 7.632 0 0 1-1.563-.65 3.19 3.19 0 0 1-1.14-1.065 3.113 3.113 0 0 1-.434-1.724 3.453 3.453 0 0 1 .537-1.874 3.728 3.728 0 0 1 1.658-1.375 6.823 6.823 0 0 1 2.854-.518c.77 0 1.536.102 2.279.301.698.176 1.36.47 1.96.867l-.622 1.508a6.063 6.063 0 0 0-1.789-.82 7.018 7.018 0 0 0-1.828-.254 5.009 5.009 0 0 0-1.828.283 2.216 2.216 0 0 0-1.045.753 1.8 1.8 0 0 0-.33 1.055c-.019.417.142.822.443 1.112a3.18 3.18 0 0 0 1.149.659c.51.175 1.029.322 1.554.443.565.132 1.134.279 1.706.442.545.153 1.07.367 1.564.641.46.254.851.616 1.14 1.055.308.51.459 1.1.434 1.695a3.392 3.392 0 0 1-.546 1.856 3.782 3.782 0 0 1-1.687 1.375 6.946 6.946 0 0 1-2.873.519ZM431.905 83.766h-1.885V70.579h1.885v13.187Zm7.742-5.878h-7.931v-1.639h7.931v1.639Zm-.169-7.31h1.884v13.188h-1.884V70.578ZM457.715 82.127h7.686v1.639h-9.571V70.579h9.307v1.639h-7.422v9.909Zm-.17-5.859h6.783v1.601h-6.782l-.001-1.601ZM478.966 83.766V70.579h5.557a8.007 8.007 0 0 1 3.721.829 6.124 6.124 0 0 1 2.506 2.317 7.094 7.094 0 0 1 0 6.895 6.124 6.124 0 0 1-2.506 2.317 8.007 8.007 0 0 1-3.721.829h-5.557Zm1.884-1.639h3.561a6.066 6.066 0 0 0 2.835-.622 4.51 4.51 0 0 0 1.855-1.743 5.437 5.437 0 0 0 0-5.19 4.543 4.543 0 0 0-1.855-1.733 6.078 6.078 0 0 0-2.835-.622h-3.561v9.91Z"/>
</svg>
