<?xml version="1.0" encoding="UTF-8" standalone="no"?>
<svg
   id="axosyslog_3_"
   data-name="axosyslog (3)"
   width="1704.961"
   height="245.027"
   viewBox="0 0 1704.961 245.027"
   version="1.1"
   sodipodi:docname="axosyslog-white.svg"
   inkscape:version="1.3 (0e150ed6c4, 2023-07-21)"
   xmlns:inkscape="http://www.inkscape.org/namespaces/inkscape"
   xmlns:sodipodi="http://sodipodi.sourceforge.net/DTD/sodipodi-0.dtd"
   xmlns="http://www.w3.org/2000/svg"
   xmlns:svg="http://www.w3.org/2000/svg">
  <defs
     id="defs1" />
  <sodipodi:namedview
     id="namedview1"
     pagecolor="#ffffff"
     bordercolor="#000000"
     borderopacity="0.25"
     inkscape:showpageshadow="2"
     inkscape:pageopacity="0.0"
     inkscape:pagecheckerboard="0"
     inkscape:deskcolor="#d1d1d1"
     inkscape:zoom="0.54898615"
     inkscape:cx="853.3913"
     inkscape:cy="122.95392"
     inkscape:window-width="1716"
     inkscape:window-height="1381"
     inkscape:window-x="0"
     inkscape:window-y="0"
     inkscape:window-maximized="1"
     inkscape:current-layer="axosyslog_3_" />
  <g
     id="Group_2132"
     data-name="Group 2132"
     transform="translate(338.639 104.35)"
     style="fill:#ffffff">
    <path
       id="Path_4363"
       data-name="Path 4363"
       d="M218.285,127.309,266.09,61.34h-27.53l-34.555,48.548L169.051,61.34H140.322L188.3,128.223l-50.719,69.8h28.9l36.668-52.032,37.125,52.032h29.3Z"
       transform="translate(24 -59.341)"
       style="fill:#ffffff" />
    <path
       id="Path_4364"
       data-name="Path 4364"
       d="M305.021,103.266A67.222,67.222,0,0,0,289.6,80.991a72.531,72.531,0,0,0-23.36-14.736A78.933,78.933,0,0,0,236.882,61a80.232,80.232,0,0,0-29.3,5.255,72.179,72.179,0,0,0-23.417,14.736,66.644,66.644,0,0,0-15.421,22.275,70.305,70.305,0,0,0-5.483,27.987,70.585,70.585,0,0,0,5.483,28.044,67.221,67.221,0,0,0,15.421,22.275,70.314,70.314,0,0,0,23.417,14.736,84.476,84.476,0,0,0,58.658,0,73.863,73.863,0,0,0,23.36-14.622,64.2,64.2,0,0,0,15.421-22.275,70.864,70.864,0,0,0,5.483-28.1A70.387,70.387,0,0,0,305.021,103.266Zm-23.7,47.235a48.2,48.2,0,0,1-10.052,15.25,44.1,44.1,0,0,1-15.25,10.052,51.136,51.136,0,0,1-19.134,3.541,50.029,50.029,0,0,1-19.134-3.541A45.192,45.192,0,0,1,202.5,165.75a46.3,46.3,0,0,1-10.052-15.307,52.974,52.974,0,0,1,0-38.382,46.652,46.652,0,0,1,10.167-15.25,45.191,45.191,0,0,1,15.25-10.052,50.115,50.115,0,0,1,19.02-3.541,51.135,51.135,0,0,1,19.134,3.541,45.191,45.191,0,0,1,15.25,10.052,46.954,46.954,0,0,1,10.052,15.25,53.126,53.126,0,0,1,0,38.439Z"
       transform="translate(144.993 -60.943)"
       style="fill:#ffffff" />
    <g
       id="Group_2130"
       data-name="Group 2130"
       transform="translate(0 1.999)"
       style="fill:#ffffff">
      <path
         id="Path_4365"
         data-name="Path 4365"
         d="M195.763,61.34H170.8L109.29,198.018h26.159l13.536-31.642,8.51-19.933,25.588-59.8,25.7,59.8,8.567,19.933,13.536,31.642h26.559Z"
         transform="translate(-109.29 -61.34)"
         style="fill:#ffffff" />
      <ellipse
         id="Ellipse_1316"
         data-name="Ellipse 1316"
         cx="14.736"
         cy="14.736"
         rx="14.736"
         ry="14.736"
         transform="translate(59.172 90.3)"
         fill="#2f3772"
         style="fill:#ffffff" />
    </g>
    <g
       id="Group_2131"
       data-name="Group 2131"
       transform="translate(161.637)"
       style="fill:#ffffff">
      <path
         id="Path_4366"
         data-name="Path 4366"
         d="M266.1,61.33h-27.53l-34.555,48.548L169.061,61.33H140.332l47.977,66.94L137.59,198.008h28.9l36.668-51.975,37.125,51.975h29.3l-51.347-70.652Z"
         transform="translate(-137.59 -59.388)"
         style="fill:#ffffff" />
      <path
         id="Path_4367"
         data-name="Path 4367"
         d="M289.6,80.991a70.063,70.063,0,0,0-23.36-14.736A78.933,78.933,0,0,0,236.882,61a80.232,80.232,0,0,0-29.3,5.255,72.179,72.179,0,0,0-23.417,14.736,66.644,66.644,0,0,0-15.421,22.275,70.386,70.386,0,0,0-5.483,28.044,70.585,70.585,0,0,0,5.483,28.044,67.222,67.222,0,0,0,15.421,22.275,70.314,70.314,0,0,0,23.417,14.736,84.476,84.476,0,0,0,58.658,0,73.863,73.863,0,0,0,23.36-14.622,64.969,64.969,0,0,0,15.421-22.275,70.864,70.864,0,0,0,5.483-28.1,70.584,70.584,0,0,0-5.483-28.044A64.189,64.189,0,0,0,289.6,80.991Zm-8.282,69.51a48.2,48.2,0,0,1-10.052,15.25,44.1,44.1,0,0,1-15.25,10.052,53.463,53.463,0,0,1-38.268,0A44.638,44.638,0,0,1,202.5,165.75a47.2,47.2,0,0,1-10.052-15.307,52.974,52.974,0,0,1,0-38.382,46.652,46.652,0,0,1,10.167-15.25,45.191,45.191,0,0,1,15.25-10.052,50.115,50.115,0,0,1,19.02-3.541,51.135,51.135,0,0,1,19.134,3.541,44.637,44.637,0,0,1,15.25,10.052,46.954,46.954,0,0,1,10.052,15.25,53.126,53.126,0,0,1,0,38.439Z"
         transform="translate(-16.644 -60.943)"
         style="fill:#ffffff" />
      <path
         id="Path_4368"
         data-name="Path 4368"
         d="M288.42,131.958a70.369,70.369,0,0,0-15.821-6.625c-5.769-1.713-11.594-3.2-17.477-4.569s-11.137-2.742-15.935-4.169a31.831,31.831,0,0,1-11.537-5.94,12.661,12.661,0,0,1-4.4-10.052,15.438,15.438,0,0,1,3.027-9.367c2-2.742,5.2-4.969,9.6-6.625,4.341-1.713,10.052-2.513,17.078-2.513a71.171,71.171,0,0,1,18.734,2.627,76.246,76.246,0,0,1,18.963,8.11l8-19.7a70.68,70.68,0,0,0-21.076-8.967,98.514,98.514,0,0,0-24.388-3.141c-12.508,0-22.789,1.828-30.957,5.54-8.11,3.713-14.165,8.682-18.163,14.85a36.669,36.669,0,0,0-5.94,20.39c0,7.311,1.485,13.251,4.512,17.934a34.136,34.136,0,0,0,11.594,11.252,72.292,72.292,0,0,0,15.821,6.854c5.769,1.771,11.595,3.313,17.363,4.569,5.769,1.314,11.08,2.684,15.821,4.169a33.145,33.145,0,0,1,11.594,6.054,12.576,12.576,0,0,1,4.512,10.052,14.273,14.273,0,0,1-3.141,9.081q-3.084,4.027-9.767,6.34c-4.455,1.542-10.224,2.342-17.363,2.342a73.726,73.726,0,0,1-24.788-4.284,71.828,71.828,0,0,1-20.333-10.738l-8.8,19.7q8.567,7.2,23.246,11.823a101.214,101.214,0,0,0,30.671,4.569q18.762,0,31.071-5.54c8.225-3.713,14.279-8.682,18.277-14.85a36.846,36.846,0,0,0,5.94-20.219c0-7.139-1.485-13.079-4.4-17.763A31.4,31.4,0,0,0,288.42,131.958Z"
         transform="translate(133.608 -60.849)"
         fill="#2f3772"
         style="fill:#ffffff" />
      <path
         id="Path_4369"
         data-name="Path 4369"
         d="M285.285,127.813,245.247,61.33H218.06L271.749,150.2v47.806h25.416V149.859L350.683,61.33H325.666Z"
         transform="translate(241.55 -59.388)"
         fill="#2f3772"
         style="fill:#ffffff" />
      <path
         id="Path_4370"
         data-name="Path 4370"
         d="M338.33,131.958a70.367,70.367,0,0,0-15.821-6.625c-5.769-1.713-11.594-3.2-17.477-4.569s-11.137-2.742-15.935-4.169a31.832,31.832,0,0,1-11.537-5.94,12.661,12.661,0,0,1-4.4-10.052,15.439,15.439,0,0,1,3.027-9.367c2-2.742,5.2-4.969,9.6-6.625,4.341-1.713,10.052-2.513,17.078-2.513a71.173,71.173,0,0,1,18.734,2.627,76.247,76.247,0,0,1,18.962,8.11l8-19.7a70.679,70.679,0,0,0-21.076-8.967,98.515,98.515,0,0,0-24.388-3.141c-12.508,0-22.789,1.828-30.957,5.54-8.111,3.713-14.165,8.682-18.163,14.85a36.668,36.668,0,0,0-5.94,20.39c0,7.311,1.485,13.251,4.512,17.934a34.136,34.136,0,0,0,11.594,11.252,72.292,72.292,0,0,0,15.821,6.854c5.769,1.771,11.595,3.313,17.363,4.569,5.769,1.314,11.08,2.684,15.821,4.169a33.146,33.146,0,0,1,11.594,6.054,12.577,12.577,0,0,1,4.512,10.052,14.273,14.273,0,0,1-3.141,9.081q-3.084,4.027-9.767,6.34c-4.455,1.542-10.224,2.342-17.363,2.342a73.726,73.726,0,0,1-24.788-4.284,71.83,71.83,0,0,1-20.333-10.738l-8.8,19.7q8.568,7.2,23.246,11.823a101.214,101.214,0,0,0,30.671,4.569q18.762,0,31.071-5.54c8.225-3.713,14.279-8.682,18.277-14.85a36.847,36.847,0,0,0,5.94-20.219c0-7.139-1.485-13.079-4.4-17.763A31.409,31.409,0,0,0,338.33,131.958Z"
         transform="translate(368.763 -60.849)"
         fill="#2f3772"
         style="fill:#ffffff" />
      <path
         id="Path_4371"
         data-name="Path 4371"
         d="M297.369,61.33H272.01V198.008h96.811V176.532H297.369Z"
         transform="translate(495.739 -59.388)"
         fill="#2f3772"
         style="fill:#ffffff" />
      <path
         id="Path_4372"
         data-name="Path 4372"
         d="M420.09,80.991a70.063,70.063,0,0,0-23.36-14.736A78.934,78.934,0,0,0,367.372,61a80.233,80.233,0,0,0-29.3,5.255,72.178,72.178,0,0,0-23.417,14.736,66.646,66.646,0,0,0-15.421,22.275,70.383,70.383,0,0,0-5.483,28.044,70.587,70.587,0,0,0,5.483,28.044,67.224,67.224,0,0,0,15.421,22.275,70.313,70.313,0,0,0,23.417,14.736,84.476,84.476,0,0,0,58.658,0,73.863,73.863,0,0,0,23.36-14.622,64.97,64.97,0,0,0,15.421-22.275,70.862,70.862,0,0,0,5.483-28.1,70.585,70.585,0,0,0-5.483-28.044A65.746,65.746,0,0,0,420.09,80.991Zm-8.339,69.51A48.2,48.2,0,0,1,401.7,165.75a44.1,44.1,0,0,1-15.25,10.052,53.463,53.463,0,0,1-38.268,0,44.638,44.638,0,0,1-15.25-10.052,47.2,47.2,0,0,1-10.052-15.307,52.975,52.975,0,0,1,0-38.382,46.655,46.655,0,0,1,10.167-15.25A45.191,45.191,0,0,1,348.3,86.759a50.115,50.115,0,0,1,19.019-3.541,51.135,51.135,0,0,1,19.134,3.541A44.637,44.637,0,0,1,401.7,96.812a46.953,46.953,0,0,1,10.052,15.25,49.807,49.807,0,0,1,3.6,19.248A47.879,47.879,0,0,1,411.751,150.5Z"
         transform="translate(598.169 -60.943)"
         fill="#2f3772"
         style="fill:#ffffff" />
      <path
         id="Path_4373"
         data-name="Path 4373"
         d="M429.091,172.194a47.234,47.234,0,0,1-8.51,3.884,60.031,60.031,0,0,1-19.648,3.2A54.305,54.305,0,0,1,381,175.736a45.523,45.523,0,0,1-15.593-10.052,45.035,45.035,0,0,1-10.224-15.307,53.127,53.127,0,0,1,0-38.439,45.072,45.072,0,0,1,10.224-15.25,45.993,45.993,0,0,1,15.821-9.938,55.186,55.186,0,0,1,19.933-3.541,50.752,50.752,0,0,1,37.7,15.65L454.85,83.265a61.967,61.967,0,0,0-23.532-16.621,82.89,82.89,0,0,0-31.356-5.654,80.7,80.7,0,0,0-29.472,5.2,71.121,71.121,0,0,0-23.532,14.622,66.364,66.364,0,0,0-15.536,22.332,70.862,70.862,0,0,0-5.483,28.1,70.866,70.866,0,0,0,5.483,28.1,66.309,66.309,0,0,0,15.421,22.332A68.9,68.9,0,0,0,370.2,196.3a81.294,81.294,0,0,0,29.358,5.2,96.429,96.429,0,0,0,28.615-4.4,75.465,75.465,0,0,0,24.9-12.965V129.643H429.091Z"
         transform="translate(749.834 -60.99)"
         fill="#2f3772"
         style="fill:#ffffff" />
    </g>
  </g>
  <g
     id="Layer_2"
     transform="translate(0 0)"
     style="fill:#ffffff">
    <path
       id="Path_4374"
       data-name="Path 4374"
       d="M50,285.747H330.609L278.977,196.3H142.071l48.263-83.617,16.849,29.3H195.759L175.54,176.942h92.242L190.333,42.72l-108.92,188.6H258.758l11.195,19.305H70.276Z"
       transform="translate(-50 -42.72)"
       fill="#2f3772"
       style="fill:#ffffff" />
  </g>
</svg>
