<?xml version="1.0" encoding="UTF-8"?>
<svg xmlns="http://www.w3.org/2000/svg" id="Layer_1" data-name="Layer 1" viewBox="0 0 748.04 156.71">
  <title>AxoFlow-v7-final-svg</title>
  <polygon points="40.57 156.71 66.55 156.71 83.18 127.89 76.94 117.07 70.2 105.39 40.57 156.71" fill="#231f20"></polygon>
  <polygon points="0 156.71 25.99 156.71 62.91 92.77 49.91 70.25 0 156.71" fill="#231f20"></polygon>
  <polygon points="154.95 156.71 180.94 156.71 131.03 70.25 118.03 92.76 154.95 156.71" fill="#231f20"></polygon>
  <polygon points="77.49 92.77 114.39 156.71 140.38 156.71 103.45 92.77 123.74 57.63 110.75 35.14 105.87 43.58 77.49 92.77" fill="#3d4fa2"></polygon>
  <polygon points="57.2 57.63 70.19 80.14 103.46 22.52 90.47 0 57.2 57.63" fill="#3d4fa2"></polygon>
  <polygon points="261.61 44.46 251.67 44.46 224.82 105.92 235.8 105.92 256.46 57.27 277.13 105.92 288.45 105.92 261.61 44.46" fill="#010101"></polygon>
  <polygon points="336.76 74.71 358.03 44.89 345.74 44.89 330.48 66.77 315.31 44.89 302.66 44.89 324.02 74.88 301.79 105.92 314.09 105.92 330.21 82.81 346.25 105.92 358.89 105.92 336.76 74.71" fill="#010101"></polygon>
  <path d="M434.07,62.92A30.13,30.13,0,0,0,417.5,46.13a32.52,32.52,0,0,0-12.89-2.48,32.08,32.08,0,0,0-12.91,2.53A31.68,31.68,0,0,0,381.59,53,30.46,30.46,0,0,0,375,63.09a32.71,32.71,0,0,0,0,24.4,30.23,30.23,0,0,0,16.56,16.79,32.53,32.53,0,0,0,12.9,2.48,31.86,31.86,0,0,0,23-9.37,30.77,30.77,0,0,0,6.62-10.07,32.71,32.71,0,0,0,0-24.4M423.65,83.7a21.15,21.15,0,0,1-4.23,6.89,19.56,19.56,0,0,1-6.49,4.61,19.85,19.85,0,0,1-8.32,1.71,20.09,20.09,0,0,1-8.38-1.74,20.57,20.57,0,0,1-10.84-11.65,23.73,23.73,0,0,1,0-16.82,20.75,20.75,0,0,1,4.22-6.88,19.9,19.9,0,0,1,6.5-4.63,20.16,20.16,0,0,1,8.32-1.69,19.85,19.85,0,0,1,8.37,1.74,20.58,20.58,0,0,1,6.58,4.7,21.28,21.28,0,0,1,4.27,6.94,23.88,23.88,0,0,1,0,16.82" transform="translate(-0.99 0.2)" fill="#010101"></path>
  <polygon points="502.47 54.56 502.47 44.89 457.14 44.89 457.14 105.91 467.78 105.91 467.78 81.07 498.54 81.07 498.54 71.39 467.78 71.39 467.78 54.56 502.47 54.56" fill="#3d4fa2"></polygon>
  <polygon points="533.68 96.24 533.68 44.89 523.04 44.89 523.04 105.92 565.76 105.92 565.76 96.24 533.68 96.24" fill="#3d4fa2"></polygon>
  <path d="M642,62.92a30.18,30.18,0,0,0-16.55-16.79,32.62,32.62,0,0,0-12.91-2.48,32.07,32.07,0,0,0-12.9,2.53A31.53,31.53,0,0,0,589.51,53a30.82,30.82,0,0,0-6.64,10.07,32.84,32.84,0,0,0,0,24.4,30.29,30.29,0,0,0,16.57,16.79,34.47,34.47,0,0,0,25.8,0,31.84,31.84,0,0,0,10.11-6.84A30.46,30.46,0,0,0,642,87.32a32.71,32.71,0,0,0,0-24.4M631.56,83.7a21.15,21.15,0,0,1-4.23,6.89,19.56,19.56,0,0,1-6.49,4.61,21.07,21.07,0,0,1-16.7,0,20.6,20.6,0,0,1-6.58-4.71,21.24,21.24,0,0,1-4.27-6.94,24,24,0,0,1,0-16.82,21.13,21.13,0,0,1,4.24-6.88A19.71,19.71,0,0,1,604,55.19a20.2,20.2,0,0,1,8.33-1.69,19.89,19.89,0,0,1,8.37,1.74,20.43,20.43,0,0,1,6.57,4.7,21.14,21.14,0,0,1,4.28,6.94,23.88,23.88,0,0,1,0,16.82" transform="translate(-0.99 0.2)" fill="#3d4fa2"></path>
  <polygon points="736.79 44.89 722.24 90.13 707.25 44.72 698.18 44.72 683.18 90.13 668.63 44.89 657.04 44.89 678.3 106.34 687.54 106.34 702.54 62.5 717.54 106.34 726.77 106.34 748.04 44.89 736.79 44.89" fill="#3d4fa2"></polygon>
  <path d="M262.79,91.27a5.34,5.34,0,1,1-5.34-5.35,5.34,5.34,0,0,1,5.34,5.35" transform="translate(-0.99 0.2)" fill="#3d4fa2"></path>
  <path d="M226.94,119.62h2.46v11.77h7.36v2.24h-9.82Z" transform="translate(-0.99 0.2)" fill="#010101"></path>
  <path d="M255.9,126.66v0a7.32,7.32,0,0,1,14.64,0v0a7.32,7.32,0,0,1-14.64,0Zm12.06,0v0a4.8,4.8,0,0,0-4.76-5,4.73,4.73,0,0,0-4.72,4.94v0a4.81,4.81,0,0,0,4.76,5A4.74,4.74,0,0,0,268,126.66Z" transform="translate(-0.99 0.2)" fill="#010101"></path>
  <path d="M290.9,126.66v0a7.13,7.13,0,0,1,7.22-7.24,7.56,7.56,0,0,1,5.38,1.9l-1.56,1.86a5.48,5.48,0,0,0-3.92-1.5,4.74,4.74,0,0,0-4.54,4.94v0a4.68,4.68,0,0,0,4.76,5,5.72,5.72,0,0,0,3.38-1.06v-2.63H298V125.8h6v5.89a8.93,8.93,0,0,1-5.84,2.18A7,7,0,0,1,290.9,126.66Z" transform="translate(-0.99 0.2)" fill="#010101"></path>
  <path d="M324.58,126.66v0a7.13,7.13,0,0,1,7.22-7.24,7.56,7.56,0,0,1,5.38,1.9l-1.56,1.86a5.48,5.48,0,0,0-3.92-1.5,4.74,4.74,0,0,0-4.54,4.94v0a4.68,4.68,0,0,0,4.76,5,5.72,5.72,0,0,0,3.38-1.06v-2.63h-3.58V125.8h6v5.89a8.93,8.93,0,0,1-5.84,2.18A7,7,0,0,1,324.58,126.66Z" transform="translate(-0.99 0.2)" fill="#010101"></path>
  <path d="M359,119.62h2.46v14H359Z" transform="translate(-0.99 0.2)" fill="#010101"></path>
  <path d="M383.22,119.62h2.28l7.5,9.68v-9.68h2.42v14h-2.06l-7.72-10v10h-2.42Z" transform="translate(-0.99 0.2)" fill="#010101"></path>
  <path d="M416.4,126.66v0a7.13,7.13,0,0,1,7.22-7.24,7.56,7.56,0,0,1,5.38,1.9l-1.56,1.86a5.48,5.48,0,0,0-3.92-1.5,4.74,4.74,0,0,0-4.54,4.94v0a4.68,4.68,0,0,0,4.76,5,5.72,5.72,0,0,0,3.38-1.06v-2.63h-3.58V125.8h6v5.89a8.93,8.93,0,0,1-5.84,2.18A7,7,0,0,1,416.4,126.66Z" transform="translate(-0.99 0.2)" fill="#010101"></path>
  <path d="M474.48,127.68v-8.06h2.46v8c0,2.61,1.34,4,3.54,4s3.52-1.32,3.52-3.91v-8.06h2.46v7.94c0,4.19-2.36,6.29-6,6.29S474.48,131.75,474.48,127.68Z" transform="translate(-0.99 0.2)" fill="#010101"></path>
  <path d="M507.84,119.62h2.28l7.5,9.68v-9.68H520v14H518l-7.72-10v10h-2.42Z" transform="translate(-0.99 0.2)" fill="#010101"></path>
  <path d="M541.64,119.62h2.46v11.77h7.36v2.24h-9.82Z" transform="translate(-0.99 0.2)" fill="#010101"></path>
  <path d="M572,119.62H582.4v2.2h-7.92v3.64h7v2.21h-7v3.76h8v2.2H572Z" transform="translate(-0.99 0.2)" fill="#010101"></path>
  <path d="M608.38,119.52h2.28l6.16,14.11h-2.6l-1.42-3.38h-6.62l-1.44,3.38h-2.52Zm3.52,8.54-2.42-5.6-2.4,5.6Z" transform="translate(-0.99 0.2)" fill="#010101"></path>
  <path d="M636,131.59l1.48-1.76a6.45,6.45,0,0,0,4.42,1.82c1.52,0,2.48-.7,2.48-1.77v0c0-1-.56-1.54-3.16-2.13-3-.73-4.66-1.61-4.66-4.19v0c0-2.4,2-4.06,4.78-4.06a7.76,7.76,0,0,1,5.08,1.76L645.14,123a6.36,6.36,0,0,0-3.8-1.44c-1.44,0-2.28.74-2.28,1.66v0c0,1.08.64,1.56,3.32,2.2,3,.72,4.5,1.78,4.5,4.11v0c0,2.62-2.06,4.18-5,4.18A8.62,8.62,0,0,1,636,131.59Z" transform="translate(-0.99 0.2)" fill="#010101"></path>
  <path d="M667.78,119.62h2.46v5.82h6.68v-5.82h2.46v14h-2.46v-5.91h-6.68v5.91h-2.46Z" transform="translate(-0.99 0.2)" fill="#010101"></path>
  <path d="M701,119.62h10.38v2.2h-7.92v3.64h7v2.21h-7v3.76h8v2.2H701Z" transform="translate(-0.99 0.2)" fill="#010101"></path>
  <path d="M732.38,119.62h5.22c4.4,0,7.44,3,7.44,7v0c0,3.95-3,7-7.44,7h-5.22Zm5.22,11.77a4.57,4.57,0,0,0,4.86-4.73v0a4.59,4.59,0,0,0-4.86-4.76h-2.76v9.53Z" transform="translate(-0.99 0.2)" fill="#010101"></path>
</svg>
